<svg width="32" height="32" viewBox="0 0 32 32" fill="none" xmlns="http://www.w3.org/2000/svg">
<g id="character-design 1">
<path id="Vector" d="M21.0284 22.3875C20.7121 22.387 20.3992 22.3218 20.1089 22.196C19.8382 22.074 19.6005 21.8892 19.4154 21.657C19.1315 21.2616 18.9709 20.791 18.9539 20.3045C20.4319 19.5225 22.0324 17.986 22.4024 14.993C22.5704 14.9038 22.7286 14.7972 22.8744 14.675C23.2517 14.3316 23.5358 13.8981 23.7 13.4151C23.8642 12.932 23.9033 12.4152 23.8134 11.913C23.6342 10.6329 23.7578 9.32862 24.1744 8.10501C24.372 7.5207 24.3643 6.88647 24.1527 6.3071C23.9411 5.72773 23.5381 5.23789 23.0104 4.91851C18.2754 2.05651 14.5154 1.29401 11.8384 2.65501C8.76443 4.21551 7.98343 8.11801 7.79193 10.305C7.62193 12.2415 7.92043 13.575 8.67893 14.269C8.88935 14.4639 9.14294 14.6061 9.41893 14.684C9.48987 15.1962 9.59782 15.7025 9.74193 16.199C9.96584 17.0715 10.3779 17.8844 10.9491 18.5808C11.5204 19.2773 12.2371 19.8403 13.0489 20.2305C13.0436 20.7412 12.8822 21.2381 12.5864 21.6545C12.401 21.8876 12.1628 22.0732 11.8914 22.196C11.6011 22.3217 11.2883 22.3868 10.9719 22.3875C9.84543 22.421 6.16993 23.0695 6.16993 30H7.18793C7.18793 23.9865 10.1079 23.432 11.0029 23.4055C11.4575 23.4012 11.9062 23.3035 12.3214 23.1185C12.3469 23.1065 12.3699 23.092 12.3949 23.0795C14.7575 23.6873 17.2356 23.6858 19.5974 23.075C19.6254 23.089 19.6504 23.105 19.6789 23.1185C20.0939 23.3035 20.5426 23.4012 20.9969 23.4055C21.8919 23.432 24.8119 23.9865 24.8119 30H25.8299C25.8299 23.0695 22.1544 22.421 21.0284 22.3875ZM9.32993 13.4815C9.04843 13.1965 8.62793 12.425 8.80643 10.3935C8.97943 8.41651 9.66393 4.90051 12.2994 3.56251C14.6424 2.37251 18.0694 3.12251 22.4834 5.78951C22.8133 5.99039 23.0647 6.29774 23.1962 6.66083C23.3278 7.02391 23.3316 7.421 23.2069 7.78651C22.7402 9.16372 22.6032 10.6312 22.8069 12.071C22.8551 12.3447 22.8479 12.6253 22.7857 12.8962C22.7235 13.1671 22.6077 13.4227 22.4449 13.648C22.3486 12.9892 22.2946 12.3248 22.2834 11.659C22.2832 11.4329 22.2314 11.2097 22.1321 11.0066C22.0327 10.8034 21.8883 10.6255 21.7099 10.4865C21.5269 10.3434 21.3137 10.2439 21.0864 10.1954C20.8592 10.1469 20.624 10.1507 20.3984 10.2065C19.3749 10.4535 17.7259 10.5125 15.6674 9.39301C15.3744 9.19001 13.1409 7.72201 11.1139 8.85851L11.0264 8.92051C10.9394 8.99701 9.31743 10.4795 9.32993 13.4815ZM10.7309 15.961C9.57543 11.981 11.3679 10.0095 11.6639 9.71851C13.2099 8.90701 15.0814 10.2255 15.0994 10.2385L15.1534 10.2725C17.5099 11.5625 19.4374 11.4865 20.6374 11.196C20.7138 11.1766 20.7935 11.1748 20.8706 11.1908C20.9477 11.2068 21.0202 11.2402 21.0824 11.2885C21.1397 11.3327 21.186 11.3896 21.2178 11.4546C21.2495 11.5197 21.2658 11.5911 21.2654 11.6635C21.278 12.436 21.3443 13.2067 21.4639 13.97C21.3674 17.393 19.6114 18.9025 18.1509 19.5665C17.0532 20.0483 15.8196 20.1227 14.6719 19.7765C11.3419 18.809 10.7644 16.119 10.7309 15.961ZM13.3999 22.265C13.752 21.787 13.9711 21.2242 14.0349 20.634C14.1524 20.674 14.2639 20.718 14.3884 20.754C14.9622 20.9214 15.5568 21.0067 16.1544 21.0075C16.7729 21.0083 17.3877 20.9121 17.9764 20.7225C18.0503 21.2797 18.2639 21.8091 18.5974 22.2615C16.8814 22.5978 15.1165 22.599 13.3999 22.265ZM3.59293 16.278L5.86643 13.954C5.96085 13.8575 6.01305 13.7274 6.01155 13.5924C6.01005 13.4573 5.95497 13.3284 5.85843 13.234C5.76189 13.1396 5.6318 13.0874 5.49677 13.0889C5.36175 13.0904 5.23285 13.1455 5.13843 13.242L2.51193 15.9275C2.41797 16.0236 2.36578 16.1529 2.36671 16.2873C2.36765 16.4217 2.42164 16.5503 2.51693 16.645L5.16293 19.2715C5.25881 19.3667 5.38855 19.4198 5.52363 19.4193C5.6587 19.4188 5.78803 19.3646 5.88318 19.2688C5.97833 19.1729 6.03149 19.0431 6.03097 18.9081C6.03046 18.773 5.97631 18.6437 5.88043 18.5485L3.59293 16.278ZM26.8609 13.2425C26.8147 13.1925 26.759 13.1523 26.697 13.1242C26.635 13.0962 26.568 13.0808 26.5 13.0791C26.4319 13.0774 26.3642 13.0893 26.3009 13.1142C26.2375 13.1391 26.1798 13.1764 26.1312 13.224C26.0825 13.2716 26.0439 13.3285 26.0176 13.3913C25.9913 13.454 25.9779 13.5214 25.9781 13.5895C25.9783 13.6576 25.9921 13.7249 26.0188 13.7875C26.0455 13.8501 26.0845 13.9067 26.1334 13.954L28.4069 16.278L26.1194 18.5485C26.0236 18.6436 25.9694 18.7729 25.9688 18.9079C25.9683 19.0429 26.0214 19.1726 26.1164 19.2685C26.2115 19.3644 26.3408 19.4186 26.4758 19.4191C26.6108 19.4197 26.7406 19.3666 26.8364 19.2715L29.4824 16.645C29.5779 16.5504 29.6321 16.4218 29.6331 16.2874C29.6341 16.153 29.5819 16.0236 29.4879 15.9275L26.8609 13.2425Z" fill="#222222"/>
</g>
</svg>
