<svg width="21" height="24" viewBox="0 0 21 24" fill="none" xmlns="http://www.w3.org/2000/svg">
<g id="Group">
<g id="Group_2">
<path id="Vector" d="M20.1501 23.1134C20.1501 23.4407 19.8848 23.7061 19.5575 23.7061C19.2302 23.7061 18.9648 23.4407 18.9648 23.1134C18.9648 18.2037 14.9848 14.2236 10.0751 14.2236C5.16539 14.2236 1.1853 18.2037 1.1853 23.1134C1.1853 23.4407 0.919964 23.7061 0.592651 23.7061C0.265339 23.7061 0 23.4407 0 23.1134C0 17.5491 4.51076 13.0383 10.0751 13.0383C15.6394 13.0383 20.1501 17.5491 20.1501 23.1134ZM10.0751 11.853C6.80195 11.853 4.14856 9.19964 4.14856 5.92651C4.14856 2.65339 6.80195 0 10.0751 0C13.3482 0 16.0016 2.65339 16.0016 5.92651C16.0016 9.19964 13.3482 11.853 10.0751 11.853ZM10.0751 10.6677C12.6936 10.6677 14.8163 8.54501 14.8163 5.92651C14.8163 3.30802 12.6936 1.1853 10.0751 1.1853C7.45657 1.1853 5.33386 3.30802 5.33386 5.92651C5.33386 8.54501 7.45657 10.6677 10.0751 10.6677Z" fill="#222222"/>
</g>
</g>
</svg>
