<svg width="176" height="53" viewBox="0 0 176 53" fill="none" xmlns="http://www.w3.org/2000/svg">
<g id="Setoo Login Logo" clip-path="url(#clip0_1_172)">
<path id="Vector" d="M163.565 41.4255C161.82 43.1768 159.682 44.0234 157.043 44.0234C154.403 44.0234 152.266 43.1768 150.521 41.4255C149.343 40.2428 148.609 38.7758 148.216 37.1343H139.106C139.556 41.4772 141.243 45.0381 144.166 47.8558C147.707 51.2422 151.982 52.9354 157.043 52.9354C162.103 52.9354 166.32 51.2422 169.861 47.8558C172.842 45.0316 174.529 41.419 174.98 37.1343H165.87C165.477 38.7693 164.743 40.2363 163.565 41.4255Z" fill="#EF5449"/>
<path id="Vector_2" d="M69.9455 21.4494C66.6298 18.1212 62.4127 16.428 57.4037 16.428C52.3947 16.428 48.0682 18.1212 44.5851 21.4494C41.102 24.7777 39.3572 29.127 39.3572 34.4846C39.3572 39.8421 41.102 44.2496 44.5851 47.6942C48.1261 51.0806 52.4012 52.7738 57.4037 52.7738C60.9448 52.7738 64.209 52.037 67.132 50.6282C70.0549 49.1612 72.1925 47.0738 73.6539 44.3659L66.7392 40.6434C66.0053 42.0523 64.827 43.1251 63.2561 43.92C61.6787 44.7084 59.9404 45.1027 58.0282 45.1027C55.44 45.1027 53.251 44.4241 51.5062 43.0152C49.7615 41.6064 48.6927 39.855 48.4158 37.5995H74.8965C75.006 36.1325 75.0639 35.0597 75.0639 34.4393C75.006 29.1917 73.3192 24.8423 69.9455 21.4559V21.4494ZM48.3 31.4924C48.6347 29.2369 49.652 27.4855 51.3388 26.1284C53.0257 24.7712 55.1632 24.0991 57.4681 24.0991C59.773 24.0991 61.7431 24.7777 63.314 26.0767C64.8914 27.3757 65.8443 29.1787 66.1791 31.4924H48.3Z" fill="#292A2C"/>
<path id="Vector_3" d="M130.839 21.6756C127.356 18.3474 123.139 16.6542 118.02 16.6542C112.902 16.6542 108.633 18.3474 105.144 21.6756C101.661 25.0039 99.9158 29.2951 99.9158 34.7108C99.9158 40.1264 101.661 44.5339 105.144 47.8622C108.685 51.2486 113.018 52.9418 118.02 52.9418C123.023 52.9418 127.298 51.2486 130.839 47.8622C134.38 44.4758 136.125 40.0166 136.125 34.7108C136.125 29.4049 134.38 25.0039 130.839 21.6756ZM124.542 41.4254C122.797 43.1768 120.66 44.0234 118.02 44.0234C115.381 44.0234 113.243 43.1768 111.498 41.4254C109.753 39.674 108.91 37.3604 108.91 34.7108C108.91 32.0611 109.753 29.9155 111.498 28.1641C113.243 26.4709 115.381 25.5661 117.962 25.5661C120.544 25.5661 122.688 26.4127 124.426 28.1641C126.171 29.9155 127.015 32.0611 127.015 34.7108C127.124 37.4186 126.281 39.6805 124.542 41.4254Z" fill="#292A2C"/>
<path id="Vector_4" d="M33.4534 28.7846C31.2064 26.0767 27.4915 23.9893 22.431 22.6321L16.1344 20.7709C14.1642 20.2603 12.7027 19.4719 11.6919 18.5671H1.01081C2.24696 23.7049 6.4061 27.3692 13.5526 29.4631L19.8492 31.0982C22.3215 31.8349 24.1758 32.7332 25.3025 33.8642C26.4807 34.9951 26.9893 36.4622 26.9314 38.1554C26.8219 40.0166 26.03 41.4836 24.4591 42.6146C22.9396 43.7455 20.918 44.3659 18.4457 44.3659C15.9734 44.3659 13.7779 43.6874 12.1491 42.2785C10.5202 40.8697 9.67675 39.1765 9.56086 37.1407H0C0 41.5999 1.68683 45.3224 5.11844 48.4309C8.4921 51.4813 12.9345 53 18.3878 53C23.3388 53 27.4979 51.701 30.8716 49.103C34.3032 46.5051 36.1574 42.9506 36.3828 38.4333C36.7176 34.7108 35.7068 31.4924 33.4598 28.7846H33.4534Z" fill="#292A2C"/>
<path id="Vector_5" d="M10.0115 14.9028C10.0115 13.0997 10.7454 11.6844 12.149 10.5599C13.5525 9.42897 15.4132 8.86672 17.6601 8.86672C20.023 8.86672 21.9352 9.48713 23.2808 10.6698C24.6328 11.8525 25.3024 13.494 25.3024 15.5232H34.8053C34.8053 10.8378 33.1764 7.11535 29.9702 4.29118C26.7639 1.46702 22.7142 0 17.7696 0C12.825 0 8.88476 1.40885 5.5111 4.29118C2.19538 6.99902 0.508545 10.6116 0.508545 15.129V15.5232H10.0115C10.0115 15.297 10.0115 15.0708 10.0115 14.9028Z" fill="#EF5449"/>
<path id="Vector_6" d="M150.579 28.1641C152.323 26.4709 154.461 25.5661 157.043 25.5661C159.624 25.5661 161.768 26.4127 163.507 28.1641C165.084 29.7475 165.979 31.7186 166.095 34.0322H175.089C174.98 29.0107 173.235 24.8294 169.861 21.6175C166.378 18.2892 162.161 16.596 157.043 16.596C151.924 16.596 147.656 18.2892 144.166 21.6175C140.85 24.8359 139.106 28.9525 138.996 34.0322H147.99C148.1 31.7186 148.943 29.741 150.579 28.1641Z" fill="#292A2C"/>
<path id="Vector_7" d="M96.6516 25.3399H88.2174V40.9149C88.2174 42.2138 88.5522 43.1703 89.1703 43.739C89.7884 44.3013 90.7477 44.6955 91.9838 44.7537C93.22 44.8118 94.7394 44.8118 96.5937 44.6955V52.5411C89.9558 53.2779 85.1206 52.9353 82.5904 50.6799C80.0022 48.3663 79.5 46.1108 79.5 40.9149V8.40785L88.1595 5.47382V15.9691H96.5937L96.6516 25.3399Z" fill="#292A2C"/>
</g>
<defs>
<clipPath id="clip0_1_172">
<rect width="175.089" height="53" fill="white"/>
</clipPath>
</defs>
</svg>
