<svg width="28" height="28" viewBox="0 0 28 28" fill="none" xmlns="http://www.w3.org/2000/svg">
<path id="Vector" d="M1.86445 11.5038C0.836163 11.5027 0.00227165 10.6608 0.00115013 9.62147V7.30231C0.00676918 7.0856 0.183208 6.91315 0.397856 6.91315C0.612503 6.91315 0.78895 7.08561 0.794559 7.30231V9.62147C0.795683 10.2183 1.27444 10.7016 1.86445 10.7028H6.4676V8.18052C6.4676 7.00392 7.41274 6.05085 8.57812 6.05085H10.0166V2.24638C10.0076 1.77777 9.62326 1.4045 9.15912 1.41243H8.66802C8.44888 1.41243 8.27132 1.23316 8.27132 1.01191C8.27132 0.790661 8.44888 0.611394 8.66802 0.611394H9.15912C10.0615 0.603452 10.7999 1.33528 10.81 2.24638V6.05201H13.6072V0.389161C13.6128 0.17245 13.7893 0 14.0039 0C14.2186 0 14.395 0.172462 14.4006 0.389161V6.05201H16.9303V2.24638C16.9393 1.33528 17.6788 0.603464 18.5812 0.611394H19.5623C19.7815 0.611394 19.959 0.790664 19.959 1.01191C19.959 1.23316 19.7815 1.41243 19.5623 1.41243H18.5801H18.5812C18.116 1.40449 17.7328 1.77777 17.7237 2.24638V6.05201H20.0928C21.2582 6.05201 22.2022 7.00508 22.2022 8.18168V10.7028H26.1367C26.7267 10.7017 27.2054 10.2183 27.2066 9.62264V7.30234C27.2122 7.08563 27.3886 6.91318 27.6033 6.91318C27.8179 6.91318 27.9944 7.08564 28 7.30234V9.6215C27.9989 10.6608 27.165 11.5027 26.1367 11.5038H22.201V15.1834L25.6421 15.1823C25.8613 15.1823 26.0389 15.3616 26.0389 15.5828C26.0389 15.8041 25.8613 15.9833 25.6421 15.9833H22.201V18.8664L26.1367 18.8675C27.165 18.8687 27.9989 19.7094 28 20.7487V23.0679C27.9944 23.2846 27.8179 23.4571 27.6033 23.4571C27.3886 23.4571 27.2122 23.2846 27.2066 23.0679V20.7465C27.2055 20.1508 26.7267 19.6675 26.1367 19.6663H22.201V19.8081C22.201 20.9847 21.257 21.9378 20.0916 21.9378H18.3497V25.7423C18.3587 26.2109 18.7419 26.5841 19.2072 26.5762H20.1905C20.4097 26.5762 20.5872 26.7555 20.5872 26.9767C20.5872 27.198 20.4097 27.3773 20.1905 27.3773H19.2083C18.3059 27.3841 17.5675 26.6534 17.5574 25.7423V21.9366H15.0277V27.5995C15.0277 27.8207 14.8501 28 14.631 28C14.4118 28 14.2343 27.8207 14.2343 27.5995V21.9366H11.4371V25.7423C11.4281 26.6534 10.6886 27.3852 9.78619 27.3773H9.29509C9.07594 27.3773 8.89838 27.198 8.89838 26.9767C8.89838 26.7555 9.07595 26.5762 9.29509 26.5762H9.78619C10.2514 26.5842 10.6347 26.2109 10.6437 25.7423V21.9366H8.57585C7.41044 21.9366 6.46645 20.9836 6.46645 19.807V19.6651H1.8633C1.27217 19.6663 0.793413 20.1496 0.793413 20.7453V23.0645C0.786671 23.2812 0.611355 23.4548 0.396708 23.4548C0.18206 23.4548 0.00560951 23.2812 0 23.0645V20.7464C0.00112343 19.7083 0.834984 18.8664 1.8633 18.8652H6.46645V15.9822H2.359C2.13986 15.9822 1.9623 15.8029 1.9623 15.5816C1.9623 15.3604 2.13986 15.1811 2.359 15.1811H6.4676V11.5015L1.86445 11.5038ZM7.26107 19.8081C7.26219 20.5411 7.84996 21.1345 8.57593 21.1356H20.0927C20.8187 21.1345 21.4076 20.5411 21.4076 19.8081V8.18064C21.4076 7.44768 20.8187 6.85427 20.0927 6.85314H8.57593C7.84996 6.85427 7.26219 7.44768 7.26107 8.18064V19.8081Z" fill="white"/>
</svg>
